# xmcd
#
# Track frame offsets:
#	150
#	18819
#	37706
#	55736
#	74768
#	90364
#	105897
#	126937
#	147325
#	166984
#	186174
#	202082
#	218978
#	239645
#	258887
#	277431
#	296700
#	313030
#	333031
#
# Disc length: 4653 seconds
#
# Revision: 2
# Processed by: cddbd v1.5.2PL0 Copyright (c) Steve Scherf et al.
# Submitted via: audiograbber 1.83.01
#
DISCID=1d122b13
DTITLE=Various Artist - Zoom-TP-90's-Disc 2
DYEAR=1900
DGENRE=Karaoke
TTITLE0=Take That - Back For Good
TTITLE1=Cher - Believe
TTITLE2=Steps - Better Best Forgotten
TTITLE3=Verve,The - Bitter Sweet Symphony
TTITLE4=Texas - Black Eyed Boy
TTITLE5=Michael Jackson - Black Or White (with rapper)
TTITLE6=Alannah Myles - Black Velvet
TTITLE7=Erasure - Blue Savannah
TTITLE8=Deep Blue Something - Breakfast At Tiffanys
TTITLE9=Pulp - Common People
TTITLE10=Rednex - Cotton Eyed Joe
TTITLE11=Take That - Could It Be Magic
TTITLE12=Seal - Crazy
TTITLE13=Let Loose - Crazy For You
TTITLE14=Radiohead - Creep
TTITLE15=Jimmy Nail - Crocodile Shoes
TTITLE16=Jennifer Paige - Crush
TTITLE17=Mavericks,The - Dance The Night Away
TTITLE18=Right Said Fred - Deeply Dippy
EXTD=
EXTT0=
EXTT1=
EXTT2=
EXTT3=
EXTT4=
EXTT5=
EXTT6=
EXTT7=
EXTT8=
EXTT9=
EXTT10=
EXTT11=
EXTT12=
EXTT13=
EXTT14=
EXTT15=
EXTT16=
EXTT17=
EXTT18=
PLAYORDER=
